{
    "asset" : {
        "generator" : "Khronos glTF Blender I/O v1.7.33",
        "version" : "2.0"
    },
    "scene" : 0,
    "scenes" : [
        {
            "name" : "Scene",
            "nodes" : [
                0
            ]
        }
    ],
    "nodes" : [
        {
            "mesh" : 0,
            "name" : "Text"
        }
    ],
    "meshes" : [
        {
            "name" : "Text",
            "primitives" : [
                {
                    "attributes" : {
                        "POSITION" : 0,
                        "NORMAL" : 1,
                        "TEXCOORD_0" : 2
                    },
                    "indices" : 3
                }
            ]
        }
    ],
    "accessors" : [
        {
            "bufferView" : 0,
            "componentType" : 5126,
            "count" : 26707,
            "max" : [
                2.198359489440918,
                0.12999999523162842,
                1.008948564529419
            ],
            "min" : [
                -2.1703951358795166,
                -0.12999999523162842,
                -0.5376584529876709
            ],
            "type" : "VEC3"
        },
        {
            "bufferView" : 1,
            "componentType" : 5126,
            "count" : 26707,
            "type" : "VEC3"
        },
        {
            "bufferView" : 2,
            "componentType" : 5126,
            "count" : 26707,
            "type" : "VEC2"
        },
        {
            "bufferView" : 3,
            "componentType" : 5123,
            "count" : 50592,
            "type" : "SCALAR"
        }
    ],
    "bufferViews" : [
        {
            "buffer" : 0,
            "byteLength" : 320484,
            "byteOffset" : 0
        },
        {
            "buffer" : 0,
            "byteLength" : 320484,
            "byteOffset" : 320484
        },
        {
            "buffer" : 0,
            "byteLength" : 213656,
            "byteOffset" : 640968
        },
        {
            "buffer" : 0,
            "byteLength" : 101184,
            "byteOffset" : 854624
        }
    ],
    "buffers" : [
        {
            "byteLength" : 955808,
            "uri" : "data:application/octet-stream;base64,"
        }
    ]
}
